# xmcd
#
# Track frame offsets:
#  150
#  19194
#  32846
#  43398
#  60830
#  74723
#  92561
#  110546
#  124753
#  148303
#
# Disc length: 2243 seconds
#
# Revision: 0
# Processed by: cddbd v1.5.2PL0 Copyright (c) Steve Scherf et al.
# Submitted via: Collectorz.com_Music_Collector 6.11
#
DISCID=9308c10a
DTITLE=Kevin Montgomery - True
DYEAR=2006
DGENRE=Americana
TTITLE0=True
TTITLE1=Tryin' To Fly With One Wing
TTITLE2=Back In Baby's Arms
TTITLE3=I Will Always Love You
TTITLE4=Somewhere In Between
TTITLE5=Drive
TTITLE6=St Kilda
TTITLE7=There She Goes
TTITLE8=Nothing
TTITLE9=Defeated
EXTD=
EXTT0=
EXTT1=
EXTT2=
EXTT3=
EXTT4=
EXTT5=
EXTT6=
EXTT7=
EXTT8=
EXTT9=
PLAYORDER=
